<svg width="165" height="49" viewBox="0 0 165 49" fill="none" xmlns="http://www.w3.org/2000/svg">
<path d="M9.12 40.48C7.68 40.48 6.32 40.2133 5.04 39.68C3.76 39.1733 2.72 38.3867 1.92 37.32C1.14667 36.2533 0.76 34.92 0.76 33.32C0.76 31.9333 1.02667 30.8533 1.56 30.08C2.12 29.3067 2.8 28.76 3.6 28.44C4.4 28.12 5.16 27.96 5.88 27.96C5.16 28.7333 4.61333 29.5867 4.24 30.52C3.86667 31.4533 3.68 32.3867 3.68 33.32C3.68 34.3067 3.89333 35.2267 4.32 36.08C4.77333 36.9333 5.45333 37.6133 6.36 38.12C7.26667 38.6533 8.41333 38.92 9.8 38.92C11 38.92 12.1733 38.6933 13.32 38.24C14.4667 37.8133 15.4 37.1733 16.12 36.32C16.8667 35.44 17.24 34.36 17.24 33.08C17.24 31.9333 16.9467 30.9467 16.36 30.12C15.7733 29.2933 15.0133 28.56 14.08 27.92C13.1733 27.28 12.2 26.6667 11.16 26.08C10.12 25.4933 9.13333 24.88 8.2 24.24C7.29333 23.5733 6.54667 22.8133 5.96 21.96C5.37333 21.1067 5.08 20.08 5.08 18.88C5.08 17.76 5.34667 16.5867 5.88 15.36C6.41333 14.1333 7.17333 12.9733 8.16 11.88C9.17333 10.7867 10.3733 9.90667 11.76 9.24C13.1733 8.54667 14.7467 8.2 16.48 8.2C18.0533 8.2 19.1467 8.58667 19.76 9.36C20.3733 10.1067 20.68 11.0533 20.68 12.2C20.68 13.16 20.5067 14.2 20.16 15.32C19.84 16.4133 19.44 17.4667 18.96 18.48C18.48 19.4667 18.0267 20.3067 17.6 21C17.12 20.8933 16.7733 20.6933 16.56 20.4C16.3733 20.08 16.28 19.7067 16.28 19.28C16.28 18.72 16.4 18.08 16.64 17.36C16.88 16.64 17.1467 15.8933 17.44 15.12C17.76 14.3467 18.04 13.6 18.28 12.88C18.52 12.1333 18.64 11.4667 18.64 10.88C18.64 10.3467 18.48 9.93333 18.16 9.64C17.84 9.32 17.2533 9.16 16.4 9.16C15.1467 9.16 13.9867 9.45333 12.92 10.04C11.8533 10.6267 10.92 11.3867 10.12 12.32C9.32 13.2267 8.69333 14.1867 8.24 15.2C7.81333 16.2133 7.6 17.1333 7.6 17.96C7.6 18.9467 7.88 19.8 8.44 20.52C9.02667 21.2133 9.77333 21.8533 10.68 22.44C11.5867 23 12.5467 23.5733 13.56 24.16C14.6 24.72 15.5733 25.3467 16.48 26.04C17.3867 26.7333 18.12 27.56 18.68 28.52C19.2667 29.4533 19.56 30.6 19.56 31.96C19.56 33.3467 19.2533 34.5733 18.64 35.64C18.0267 36.68 17.2 37.56 16.16 38.28C15.1467 39 14.0267 39.5467 12.8 39.92C11.5733 40.2933 10.3467 40.48 9.12 40.48ZM26.7253 39.24C25.4453 39.24 24.3786 38.8133 23.5253 37.96C22.672 37.1067 22.2453 35.8267 22.2453 34.12C22.2453 32.7867 22.4986 31.4933 23.0053 30.24C23.5386 28.96 24.232 27.8133 25.0853 26.8C25.9386 25.7867 26.8853 24.9867 27.9253 24.4C28.9653 23.7867 29.992 23.48 31.0053 23.48C32.0986 23.48 32.8453 23.8 33.2453 24.44C33.6453 25.08 33.8453 25.7467 33.8453 26.44C33.8453 27.2133 33.6586 27.8933 33.2853 28.48C32.9386 29.0667 32.4586 29.36 31.8453 29.36C31.392 29.36 31.0053 29.16 30.6853 28.76C31.0853 28.5467 31.432 28.12 31.7253 27.48C32.0186 26.8133 32.1653 26.1867 32.1653 25.6C32.1653 25.28 32.0986 25.04 31.9653 24.88C31.8586 24.6933 31.632 24.6 31.2853 24.6C30.5653 24.6 29.8186 24.92 29.0453 25.56C28.2986 26.2 27.592 27.0267 26.9253 28.04C26.2853 29.0533 25.752 30.12 25.3253 31.24C24.9253 32.36 24.7253 33.4133 24.7253 34.4C24.7253 35.2267 24.9253 35.9867 25.3253 36.68C25.7253 37.3733 26.4986 37.72 27.6453 37.72C28.712 37.72 29.7786 37.4267 30.8453 36.84C31.9386 36.2533 32.952 35.4133 33.8853 34.32C34.8186 33.2267 35.5653 31.9467 36.1253 30.48L36.6453 30.88C36.032 32.48 35.192 33.92 34.1253 35.2C33.0586 36.4533 31.8853 37.44 30.6053 38.16C29.3253 38.88 28.032 39.24 26.7253 39.24ZM42.295 38.04C41.3883 38.04 40.6683 37.8 40.135 37.32C39.6283 36.84 39.375 36.2133 39.375 35.44C39.375 34.64 39.5617 33.8 39.935 32.92C40.3083 32.04 40.6683 31.1733 41.015 30.32C41.3883 29.44 41.575 28.6533 41.575 27.96C41.575 27.1067 41.3217 26.48 40.815 26.08C40.335 25.6533 39.8417 25.2667 39.335 24.92C38.7217 26.4933 38.0817 27.9867 37.415 29.4C36.7483 30.8133 36.2017 31.88 35.775 32.6L35.415 31.92C35.7883 31.2267 36.2683 30.2133 36.855 28.88C37.4683 27.5467 38.0683 26.0267 38.655 24.32C38.3883 24.0533 38.255 23.7333 38.255 23.36C38.255 22.56 38.4817 21.9067 38.935 21.4C39.3883 20.8933 39.7217 20.64 39.935 20.64C40.2283 20.64 40.3883 20.7733 40.415 21.04C40.4683 21.28 40.495 21.4667 40.495 21.6C40.495 21.7333 40.415 22 40.255 22.4C40.1217 22.7733 40.055 23 40.055 23.08C40.055 23.4533 40.255 23.8 40.655 24.12C41.0817 24.4133 41.5617 24.76 42.095 25.16C42.6283 25.5333 43.095 26 43.495 26.56C43.9217 27.0933 44.135 27.7867 44.135 28.64C44.135 29.44 43.9617 30.2533 43.615 31.08C43.295 31.9067 42.9617 32.6933 42.615 33.44C42.295 34.1867 42.135 34.84 42.135 35.4C42.135 35.88 42.255 36.2 42.495 36.36C42.735 36.52 43.015 36.6 43.335 36.6C43.975 36.6 44.6283 36.4 45.295 36C45.9883 35.6 46.655 35.0933 47.295 34.48C47.935 33.8667 48.5083 33.2267 49.015 32.56C49.5217 31.8667 49.895 31.2267 50.135 30.64L50.655 31.04C50.1483 32.16 49.455 33.2667 48.575 34.36C47.695 35.4267 46.7083 36.3067 45.615 37C44.5483 37.6933 43.4417 38.04 42.295 38.04ZM66.8813 38.96C65.2546 38.96 64.0413 38.4667 63.2413 37.48C62.4679 36.4933 62.0813 35.3067 62.0813 33.92C60.9346 35.44 59.6146 36.6267 58.1213 37.48C56.6279 38.3333 55.1213 38.76 53.6013 38.76C51.9746 38.76 50.7479 38.3067 49.9213 37.4C49.1212 36.52 48.7212 35.4267 48.7212 34.12C48.7212 32.92 49.0146 31.6533 49.6013 30.32C50.2146 28.9867 51.0146 27.7333 52.0013 26.56C53.0146 25.3867 54.1213 24.44 55.3213 23.72C56.5213 22.9733 57.7079 22.6 58.8813 22.6C59.4946 22.6 60.0546 22.76 60.5613 23.08C61.0946 23.4 61.3613 24.0533 61.3613 25.04C61.3613 26.0533 61.0546 27.0133 60.4413 27.92C59.8546 28.8 59.0679 29.5867 58.0813 30.28C57.1213 30.9733 56.0546 31.5467 54.8813 32C53.7346 32.4267 52.5879 32.6933 51.4413 32.8C51.3879 33.0667 51.3479 33.32 51.3213 33.56C51.2946 33.8 51.2813 34.0267 51.2813 34.24C51.2813 34.7733 51.3746 35.3067 51.5613 35.84C51.7479 36.3467 52.0679 36.76 52.5213 37.08C52.9746 37.4267 53.6146 37.6 54.4413 37.6C55.8546 37.6 57.2546 37.1067 58.6413 36.12C60.0279 35.1067 61.2413 33.8667 62.2813 32.4C62.5213 31.3067 62.9479 30.2133 63.5613 29.12C64.1746 28.0267 64.9079 27.04 65.7613 26.16C66.6413 25.2533 67.5879 24.5333 68.6013 24C69.6146 23.44 70.6413 23.16 71.6813 23.16C72.2946 23.16 72.8546 23.32 73.3613 23.64C73.8946 23.96 74.1613 24.6133 74.1613 25.6C74.1613 26.96 73.6946 28.16 72.7613 29.2C71.8546 30.2133 70.6813 31.0267 69.2413 31.64C67.8013 32.2533 66.3213 32.64 64.8013 32.8C64.7479 33.0667 64.7079 33.32 64.6813 33.56C64.6546 33.8 64.6413 34.0267 64.6413 34.24C64.6413 34.7733 64.7213 35.32 64.8813 35.88C65.0679 36.44 65.3746 36.8933 65.8013 37.24C66.2546 37.6133 66.8946 37.8 67.7213 37.8C68.8679 37.8 70.0146 37.4667 71.1613 36.8C72.3079 36.1067 73.3746 35.2133 74.3613 34.12C75.3479 33 76.1746 31.8 76.8413 30.52L77.3213 30.88C76.6013 32.48 75.6679 33.8933 74.5213 35.12C73.4013 36.32 72.1746 37.2533 70.8413 37.92C69.5346 38.6133 68.2146 38.96 66.8813 38.96ZM51.6413 32.04C52.3613 31.8 53.1746 31.4533 54.0813 31C54.9879 30.52 55.8546 29.96 56.6813 29.32C57.5346 28.68 58.2279 27.9733 58.7613 27.2C59.3213 26.4267 59.6013 25.6133 59.6013 24.76C59.6013 24.4667 59.5479 24.24 59.4413 24.08C59.3346 23.92 59.1079 23.84 58.7613 23.84C58.1213 23.84 57.4413 24.0933 56.7213 24.6C56.0013 25.08 55.3079 25.72 54.6413 26.52C53.9746 27.32 53.3746 28.2 52.8413 29.16C52.3079 30.12 51.9079 31.08 51.6413 32.04ZM65.0013 32.04C65.7213 31.8 66.5079 31.48 67.3613 31.08C68.2146 30.68 69.0279 30.2133 69.8013 29.68C70.5746 29.12 71.2146 28.4933 71.7213 27.8C72.2279 27.08 72.4813 26.2933 72.4813 25.44C72.4813 25.1467 72.4146 24.9067 72.2813 24.72C72.1479 24.5067 71.9079 24.4 71.5613 24.4C70.7079 24.4 69.8413 24.7733 68.9613 25.52C68.1079 26.2667 67.3213 27.2267 66.6013 28.4C65.9079 29.5467 65.3746 30.76 65.0013 32.04ZM88.92 37.8C87.9867 37.8 87.28 37.56 86.8 37.08C86.3467 36.6 86.12 35.9867 86.12 35.24C86.12 34.68 86.2133 34.0933 86.4 33.48C86.6133 32.8667 86.8133 32.24 87 31.6C87.1867 30.9333 87.28 30.2933 87.28 29.68C87.28 28.9333 87.12 28.4267 86.8 28.16C86.5067 27.8667 86.1333 27.72 85.68 27.72C84.8533 27.72 84.0133 28.0667 83.16 28.76C82.3067 29.4267 81.48 30.2933 80.68 31.36C79.88 32.4 79.1333 33.48 78.44 34.6C77.7467 35.72 77.1333 36.72 76.6 37.6C76.1733 37.6 75.7733 37.52 75.4 37.36C75 37.2267 74.6933 37.0133 74.48 36.72C74.48 36.5867 74.6267 36.1733 74.92 35.48C75.1867 34.7867 75.5067 33.9333 75.88 32.92C76.2533 31.9067 76.5867 30.8667 76.88 29.8C77.1733 28.7333 77.32 27.76 77.32 26.88C77.48 26.6933 77.7333 26.5067 78.08 26.32C78.4267 26.1333 78.7867 26.04 79.16 26.04C79.88 26.04 80.24 26.3867 80.24 27.08C80.24 27.5067 80.12 28.2267 79.88 29.24C79.64 30.2267 79.3333 31.2667 78.96 32.36C79.68 31.2667 80.48 30.1867 81.36 29.12C82.2667 28.0267 83.2267 27.12 84.24 26.4C85.2533 25.68 86.2667 25.32 87.28 25.32C88.32 25.32 89.0667 25.6933 89.52 26.44C90 27.1867 90.24 28.0133 90.24 28.92C90.24 29.7467 90.1067 30.52 89.84 31.24C89.5733 31.9333 89.2933 32.6133 89 33.28C88.7333 33.92 88.6 34.5733 88.6 35.24C88.6 35.8 88.7067 36.2 88.92 36.44C89.16 36.6533 89.4533 36.76 89.8 36.76C90.4667 36.76 91.1333 36.4533 91.8 35.84C92.4667 35.2 93.1067 34.4 93.72 33.44C94.36 32.48 94.92 31.5067 95.4 30.52L95.84 31.04C95.28 32.3467 94.6533 33.5067 93.96 34.52C93.2667 35.5333 92.5067 36.3333 91.68 36.92C90.8533 37.5067 89.9333 37.8 88.92 37.8ZM112.513 40.48C111.579 40.48 110.553 40.2933 109.433 39.92C108.313 39.5467 107.153 39.08 105.953 38.52C104.779 37.9867 103.606 37.4533 102.433 36.92C101.526 37.6133 100.646 38.16 99.7928 38.56C98.9395 38.96 98.1128 39.16 97.3128 39.16C96.5395 39.16 95.8728 38.9867 95.3128 38.64C94.7795 38.32 94.3661 37.9067 94.0728 37.4C93.7795 36.92 93.6328 36.44 93.6328 35.96C93.6328 35.4 93.8728 34.92 94.3528 34.52C94.8061 34.0933 95.5928 33.88 96.7128 33.88C97.4861 33.88 98.3261 33.9867 99.2328 34.2C100.166 34.3867 101.139 34.6267 102.153 34.92C103.433 33.5867 104.739 31.9733 106.073 30.08C107.433 28.16 108.726 26.1867 109.953 24.16C108.966 24.1867 108.099 24.24 107.353 24.32C106.633 24.3733 105.766 24.4667 104.753 24.6L103.393 24.8C103.446 24.0533 103.739 23.48 104.273 23.08C104.806 22.68 105.513 22.4 106.393 22.24C107.299 22.08 108.286 22 109.353 22C109.646 22 109.939 22.0133 110.233 22.04C110.553 22.04 110.859 22.0533 111.153 22.08C112.193 20.24 113.126 18.4933 113.953 16.84C114.779 15.16 115.406 13.7467 115.833 12.6C115.406 12.4933 114.926 12.3467 114.393 12.16C113.859 11.9467 113.299 11.7333 112.713 11.52C111.433 11.0133 110.073 10.52 108.633 10.04C107.219 9.56 105.913 9.32 104.713 9.32C103.859 9.32 103.086 9.49333 102.393 9.84C101.726 10.1867 101.193 10.7867 100.793 11.64C100.393 12.4667 100.193 13.6133 100.193 15.08C100.193 15.2933 100.193 15.48 100.193 15.64C100.219 15.8 100.246 15.9467 100.273 16.08C100.299 16.2133 100.326 16.3467 100.353 16.48C99.5795 16.3467 99.0195 16.04 98.6728 15.56C98.3528 15.0533 98.1928 14.4 98.1928 13.6C98.1928 11.8133 98.8861 10.4667 100.273 9.56C101.659 8.65333 103.539 8.2 105.913 8.2C107.326 8.2 108.633 8.33333 109.833 8.6C111.059 8.84 112.233 9.13333 113.353 9.48C114.473 9.82667 115.553 10.1333 116.593 10.4C117.659 10.64 118.713 10.76 119.753 10.76C120.019 10.76 120.246 10.76 120.433 10.76C120.646 10.7333 120.846 10.7067 121.033 10.68C120.659 11 120.299 11.28 119.953 11.52C119.633 11.7333 119.326 11.92 119.033 12.08C118.446 13.4667 117.699 15.0533 116.793 16.84C115.913 18.6 114.926 20.4267 113.833 22.32C114.633 22.4 115.379 22.48 116.073 22.56C116.793 22.64 117.459 22.68 118.073 22.68C117.779 23.1067 117.446 23.4133 117.073 23.6C116.726 23.7867 116.219 23.9067 115.553 23.96C114.913 24.0133 113.993 24.0533 112.793 24.08C111.486 26.24 110.073 28.32 108.553 30.32C107.059 32.32 105.566 34.04 104.073 35.48C105.806 36.0133 107.526 36.52 109.233 37C110.966 37.48 112.513 37.72 113.873 37.72C114.433 37.72 114.939 37.6667 115.393 37.56C115.846 37.4533 116.286 37.2933 116.713 37.08C116.286 38.3067 115.713 39.1733 114.993 39.68C114.299 40.2133 113.473 40.48 112.513 40.48ZM97.1128 38.08C97.6461 38.08 98.2195 37.9067 98.8328 37.56C99.4728 37.24 100.126 36.7867 100.793 36.2C99.9128 35.8267 99.0728 35.52 98.2728 35.28C97.4728 35.04 96.7661 34.92 96.1528 34.92C95.5661 34.92 95.1661 35.0133 94.9528 35.2C94.7661 35.3867 94.6728 35.6133 94.6728 35.88C94.6728 36.3067 94.8861 36.7733 95.3128 37.28C95.7661 37.8133 96.3661 38.08 97.1128 38.08ZM122.318 38.04C121.278 38.04 120.504 37.7067 119.998 37.04C119.491 36.4 119.237 35.6133 119.237 34.68C119.237 34.0667 119.344 33.2933 119.558 32.36C119.798 31.4267 120.104 30.4533 120.478 29.44C120.851 28.4 121.278 27.4267 121.758 26.52C122.264 25.6133 122.798 24.88 123.358 24.32C123.918 23.7333 124.464 23.44 124.998 23.44C125.238 23.44 125.438 23.52 125.598 23.68C125.784 23.8133 125.878 24.0267 125.878 24.32C125.878 24.64 125.664 25.16 125.238 25.88C124.838 26.6 124.358 27.4267 123.798 28.36C123.238 29.2933 122.744 30.28 122.318 31.32C121.918 32.3333 121.718 33.3067 121.718 34.24C121.718 35.2 121.878 35.84 122.198 36.16C122.518 36.48 123.011 36.64 123.678 36.64C124.584 36.64 125.544 36.1867 126.558 35.28C127.598 34.3733 128.691 32.7867 129.838 30.52L130.198 30.92C129.424 33.2133 128.304 34.9733 126.838 36.2C125.398 37.4267 123.891 38.04 122.318 38.04ZM127.118 19.72C126.691 19.72 126.304 19.6133 125.958 19.4C125.638 19.1867 125.478 18.8533 125.478 18.4C125.478 17.84 125.798 17.36 126.438 16.96C127.104 16.5333 127.758 16.32 128.398 16.32C128.798 16.32 129.118 16.4133 129.358 16.6C129.598 16.7867 129.717 17.1067 129.717 17.56C129.717 18.0667 129.438 18.56 128.878 19.04C128.344 19.4933 127.758 19.72 127.118 19.72ZM126.566 48.2C126.353 48.2 126.153 48.08 125.966 47.84C125.753 47.6267 125.593 47.3867 125.486 47.12C125.379 46.88 125.326 46.7333 125.326 46.68C125.699 45.3733 126.073 44.2 126.446 43.16C126.793 42.1467 127.153 41.0933 127.526 40C127.873 38.9333 128.219 37.68 128.566 36.24C128.913 34.7733 129.273 32.96 129.646 30.8C130.019 28.64 130.393 25.96 130.766 22.76C130.793 22.52 130.846 22.3467 130.926 22.24C131.006 22.1333 131.206 22.08 131.526 22.08C132.219 22.08 132.713 22.28 133.006 22.68C133.299 23.0533 133.446 23.4667 133.446 23.92C133.446 24.2933 133.366 24.96 133.206 25.92C133.046 26.88 132.819 28.0133 132.526 29.32C132.979 28.44 133.539 27.5467 134.206 26.64C134.899 25.7333 135.686 24.9733 136.566 24.36C137.446 23.7467 138.406 23.44 139.446 23.44C140.619 23.44 141.579 23.8667 142.326 24.72C143.099 25.5467 143.486 26.64 143.486 28C143.486 29.04 143.246 30.1467 142.766 31.32C142.313 32.4667 141.659 33.56 140.806 34.6C139.979 35.6133 138.993 36.44 137.846 37.08C136.699 37.72 135.433 38.04 134.046 38.04C133.353 38.04 132.793 37.96 132.366 37.8C131.939 37.64 131.726 37.48 131.726 37.32C131.726 37.2133 131.819 37.1467 132.006 37.12C132.219 37.12 132.459 37.12 132.726 37.12C133.793 37.12 134.806 36.8667 135.766 36.36C136.753 35.8267 137.633 35.1333 138.406 34.28C139.179 33.4267 139.779 32.48 140.206 31.44C140.659 30.4 140.886 29.3733 140.886 28.36C140.886 27.5067 140.699 26.7867 140.326 26.2C139.979 25.5867 139.406 25.28 138.606 25.28C137.913 25.28 137.219 25.5067 136.526 25.96C135.859 26.3867 135.219 26.9467 134.606 27.64C134.019 28.3067 133.486 29.0133 133.006 29.76C132.553 30.48 132.206 31.1333 131.966 31.72C131.486 33.72 131.006 35.64 130.526 37.48C130.046 39.3467 129.579 41.0267 129.126 42.52C128.699 44.04 128.313 45.28 127.966 46.24C127.593 47.2 127.286 47.7867 127.046 48C126.913 48.1333 126.753 48.2 126.566 48.2Z" fill="#3EF40C"/>
</svg>
